<?xml version="1.0" encoding="utf-8"?>
<!-- Generator: Adobe Illustrator 23.0.1, SVG Export Plug-In . SVG Version: 6.00 Build 0)  -->
<svg version="1.1" id="Layer_1" xmlns="http://www.w3.org/2000/svg" xmlns:xlink="http://www.w3.org/1999/xlink" x="0px" y="0px"
	 viewBox="0 0 281 81.3" style="enable-background:new 0 0 281 81.3;" xml:space="preserve">
<g>
	<path d="M69.6,41.6c0-3.8,0-7.9-1.9-9.8c-1.2-1.2-2.3-1.7-4.1-1.7c-1.9,0-3.8,1-5.4,2.6c-0.6,0.7-1.3,2.2-1.3,3.6V52
		c0,2.3,0.3,3.1,1.3,3.1H60c0.4,0,0.7,0.1,0.7,0.7V57c0,0.4-0.1,0.7-0.6,0.7c-0.6,0-3.8-0.2-7.6-0.2c-4.5,0-7.3,0.2-7.9,0.2
		c-0.4,0-0.6-0.1-0.6-0.6v-1.6c0-0.4,0.3-0.5,0.7-0.5h1.8c1.2,0,2.2-0.3,2.4-1.2c0.3-1.5,0.4-5.7,0.4-9l-0.1-27.2
		c0-4.4-2.1-7.1-4.4-7.7C41.8,9.1,36.2,9,34.7,9h-2v38.8c0,5.5,0.7,7,2.5,7h4.2c0.3,0,0.4,0.3,0.4,0.7V57c0,0.4-0.1,0.7-0.7,0.7
		c-0.7,0-3.1-0.2-10.9-0.2c-7.4,0-10.5,0.2-11.5,0.2c-0.4,0-0.6-0.1-0.6-0.7v-1.7c0-0.4,0.2-0.6,0.5-0.6h4.2c1.5,0,2.3-0.9,2.4-2
		c0.2-1.9,0.2-24.2,0.2-25.6V9h-2c-2.3,0-7.6,0-10.6,1c-2.3,1-5.1,5.8-6.5,8.3c-0.2,0.4-0.4,0.7-0.8,0.5L2,18.3
		c-0.3-0.1-0.4-0.4-0.3-0.7C2.3,14.9,4.8,5.2,5.1,4.2c0.1-1,0.6-1.3,0.9-1.3c0.4,0,0.7,0.3,1.2,0.7c1.5,1.5,2.9,1.8,5,1.9
		C16,5.7,19.1,6,26.2,6h3.9c8,0,14.7-0.3,18.1-0.4C51.3,5.5,55.1,3,55.4,3h1C57,3,57.1,3.6,57,4.7c-0.1,1.3-0.1,18-0.1,21.6v4.5h0.4
		c2-2.8,6-4.4,9.4-4.4c3.2,0,5.1,1,7.3,2.9c3.4,2.9,3.2,6.6,3.2,10.7v14c0,1,1.3,1.2,2.5,1.2H81c0.6,0,0.7,0.1,0.7,0.5v1.6
		c0,0.4-0.1,0.6-0.6,0.6s-2.8-0.2-7.2-0.2c-4.4,0-7,0.2-7.7,0.2c-0.4,0-0.6-0.1-0.6-0.5v-1.7c0-0.3,0.1-0.4,0.5-0.4h1.2
		c0.9,0,1.9-0.3,2-1.5c0.1-1,0.1-4.8,0.1-7.1v-5.1H69.6z"/>
	<path d="M93.3,41.4c0,7.4,5.3,11.8,9.5,11.8c4.5,0,7.3-1.9,8.8-4.2c0.3-0.5,0.6-0.5,0.9-0.4l1.1,0.7c0.4,0.2,0.5,0.5,0,1.5
		c-1.5,2.8-5.2,7.7-13.3,7.7c-4.7,0-7.9-1-10.5-3.9c-3.4-3.9-4.1-7.5-4.1-12c0-4,0.4-6.7,3.6-10.8c3.1-3.9,6.3-5.4,12.7-5.4
		c8.3,0,11,8.7,11,11.7c0,1.1-0.7,1.2-2,1.2H93.3V41.4z M102.4,36.5c1.5,0,2.4-0.4,2.4-1c0-2.2-0.7-6.5-4.5-6.5
		c-3.6,0-5.8,2.6-6.7,7.5H102.4z"/>
	<path d="M148.2,9h-2c-2.3,0-7.6,0-10.6,1c-2.3,1-5.1,5.8-6.5,8.3c-0.2,0.4-0.4,0.7-0.8,0.5l-1.5-0.5c-0.3-0.1-0.4-0.4-0.3-0.7
		c0.7-2.8,3.2-12.4,3.5-13.4c0.1-1,0.6-1.3,0.9-1.3c0.4,0,0.7,0.3,1.2,0.7c1.5,1.5,2.9,1.8,5,1.9c3.9,0.1,7,0.4,14.1,0.4h3.9
		c8,0,11.1-0.3,14.4-0.4c1.4-0.1,4.2-1.1,5.2-1.9c0.6-0.4,0.9-0.7,1.3-0.7s0.6,0.3,0.7,1.2c0.1,1.3,1.6,10.3,2.2,13.8
		c0.1,0.4-0.1,0.6-0.3,0.7l-1.5,0.5c-0.3,0.1-0.4-0.1-0.7-0.6c-1-2-3.7-6.7-5.8-8.2c-2-1.2-8.6-1.3-11.2-1.3h-2v38.8
		c0,5.5,0.7,7,2.5,7h4.2c0.3,0,0.4,0.3,0.4,0.7V57c0,0.4-0.1,0.7-0.7,0.7c-0.7,0-3.1-0.2-10.9-0.2c-7.4,0-10.5,0.2-11.5,0.2
		c-0.4,0-0.6-0.1-0.6-0.7v-1.7c0-0.4,0.2-0.6,0.5-0.6h4.2c1.5,0,2.3-0.9,2.4-2c0.2-1.9,0.2-24.2,0.2-25.6V9H148.2z"/>
	<path d="M173.4,73.4c0-2,1.6-3.6,3.5-3.6c1.2,0,2.3,0.4,3.2,0.9c0.6,0.3,1.5,0.3,1.9-0.1c0.9-0.9,4.7-8.9,5.5-11.7
		c-0.4-2.2-8.9-25-9.4-26.2c-0.8-1.9-1.5-3.1-3-3.1h-1.5c-0.4,0-0.6-0.2-0.6-0.6v-1.6c0-0.3,0.1-0.5,0.6-0.5c0.6,0,2.3,0.2,7.7,0.2
		c4.2,0,6.4-0.2,7.3-0.2c0.4,0,0.6,0.1,0.6,0.6v1.6c0,0.3-0.1,0.5-0.5,0.5h-1.1c-0.7,0-1.3,0.4-1.1,1.5c0.2,1.5,4.6,16.4,5.3,18h0.3
		c1.3-2.8,6.4-15.2,6.8-16.8c0.4-1.9-0.2-2.8-1.5-2.8h-1.2c-0.4,0-0.6-0.2-0.6-0.5v-1.6c0-0.4,0.1-0.6,0.6-0.6
		c0.9,0,2.3,0.2,6.3,0.2c2.5,0,4.2-0.2,4.9-0.2c0.4,0,0.5,0.2,0.5,0.6V29c0,0.4-0.1,0.6-0.4,0.6h-0.9c-0.7,0-1.8,0.2-2.6,1.2
		c-1.5,1.9-6.4,12.9-11.7,24.7c-3.6,7.9-6.7,14.7-8,17c-1.2,1.9-2.6,4.8-6.6,4.8C175.1,77.4,173.4,75.8,173.4,73.4z"/>
	<path d="M220.5,70.4c0.1,4.2,0.6,4.5,2,4.5h2.6c0.4,0,0.6,0.2,0.6,0.6V77c0,0.4-0.1,0.6-0.7,0.6c-0.6,0-2.8-0.2-8.5-0.2
		c-4.8,0-7.4,0.2-8,0.2c-0.4,0-0.6-0.1-0.6-0.6v-1.6c0-0.3,0.1-0.5,0.4-0.5h2.6c1,0,1.5-0.7,1.6-1.9c0.1-1.6,0.1-4.5,0.1-10.1V37.8
		c0-2.2-0.3-3.2-2.5-4.4l-1.6-0.9c-0.4-0.3-0.6-0.4-0.6-0.7v-0.7c0-0.3,0.1-0.4,0.6-0.6l8.3-3.6c0.9-0.4,1.5-0.6,2-0.6
		c0.4,0,0.6,0.4,0.7,0.9l0.5,3.6h0.1c1.9-2.3,5.7-4.5,9.9-4.5c3.5,0,6.1,1.3,8.5,3.6c2.9,3.1,3.9,5.8,3.9,10.4
		c0,10.5-7,18.1-15.9,18.1c-1.6,0-4.2-0.3-6.4-1.3L220.5,70.4z M220.3,49.8c0,1.6,0.4,3.2,1.9,4.1c1.5,1.2,3.4,1.7,5.7,1.7
		c3.5,0,7.1-2.9,7.2-10.6c0-6.8-2.3-14.5-8.5-14.5c-2.3,0-4.8,1.2-6.3,3.2L220.3,49.8L220.3,49.8z"/>
	<path d="M255.2,41.4c0,7.4,5.3,11.8,9.5,11.8c4.5,0,7.3-1.9,8.8-4.2c0.3-0.5,0.6-0.5,0.9-0.4l1.1,0.7c0.4,0.2,0.5,0.5,0,1.5
		c-1.5,2.8-5.2,7.7-13.3,7.7c-4.7,0-7.9-1-10.5-3.9c-3.4-3.9-4.1-7.5-4.1-12c0-4,0.4-6.7,3.6-10.8c3.1-3.9,6.3-5.4,12.7-5.4
		c8.3,0,11,8.7,11,11.7c0,1.1-0.7,1.2-2,1.2h-17.6v2.1H255.2z M264.2,36.5c1.5,0,2.4-0.4,2.4-1c0-2.2-0.7-6.5-4.5-6.5
		c-3.6,0-5.8,2.6-6.7,7.5H264.2z"/>
</g>
</svg>
